<svg id="visual" viewBox="0 0 900 600" width="900" height="600" xmlns="http://www.w3.org/2000/svg" xmlns:xlink="http://www.w3.org/1999/xlink" version="1.1"><rect x="0" y="0" width="900" height="600" fill="#FC6D6D"></rect><path d="M0 318L18.8 314.3C37.7 310.7 75.3 303.3 112.8 295.8C150.3 288.3 187.7 280.7 225.2 282.3C262.7 284 300.3 295 337.8 300.2C375.3 305.3 412.7 304.7 450.2 294.8C487.7 285 525.3 266 562.8 266.8C600.3 267.7 637.7 288.3 675.2 295.8C712.7 303.3 750.3 297.7 787.8 293.3C825.3 289 862.7 286 881.3 284.5L900 283L900 0L881.3 0C862.7 0 825.3 0 787.8 0C750.3 0 712.7 0 675.2 0C637.7 0 600.3 0 562.8 0C525.3 0 487.7 0 450.2 0C412.7 0 375.3 0 337.8 0C300.3 0 262.7 0 225.2 0C187.7 0 150.3 0 112.8 0C75.3 0 37.7 0 18.8 0L0 0Z" fill="#c3c3c3"></path><path d="M0 198L18.8 201.8C37.7 205.7 75.3 213.3 112.8 211.2C150.3 209 187.7 197 225.2 198.5C262.7 200 300.3 215 337.8 223.2C375.3 231.3 412.7 232.7 450.2 232.5C487.7 232.3 525.3 230.7 562.8 230C600.3 229.3 637.7 229.7 675.2 224.7C712.7 219.7 750.3 209.3 787.8 204C825.3 198.7 862.7 198.3 881.3 198.2L900 198L900 0L881.3 0C862.7 0 825.3 0 787.8 0C750.3 0 712.7 0 675.2 0C637.7 0 600.3 0 562.8 0C525.3 0 487.7 0 450.2 0C412.7 0 375.3 0 337.8 0C300.3 0 262.7 0 225.2 0C187.7 0 150.3 0 112.8 0C75.3 0 37.7 0 18.8 0L0 0Z" fill="#878788"></path><path d="M0 157L18.8 160.2C37.7 163.3 75.3 169.7 112.8 171.8C150.3 174 187.7 172 225.2 167C262.7 162 300.3 154 337.8 150.2C375.3 146.3 412.7 146.7 450.2 150.2C487.7 153.7 525.3 160.3 562.8 159C600.3 157.7 637.7 148.3 675.2 141.3C712.7 134.3 750.3 129.7 787.8 134C825.3 138.3 862.7 151.7 881.3 158.3L900 165L900 0L881.3 0C862.7 0 825.3 0 787.8 0C750.3 0 712.7 0 675.2 0C637.7 0 600.3 0 562.8 0C525.3 0 487.7 0 450.2 0C412.7 0 375.3 0 337.8 0C300.3 0 262.7 0 225.2 0C187.7 0 150.3 0 112.8 0C75.3 0 37.7 0 18.8 0L0 0Z" fill="#505052"></path><path d="M0 96L18.8 97.3C37.7 98.7 75.3 101.3 112.8 101.3C150.3 101.3 187.7 98.7 225.2 98C262.7 97.3 300.3 98.7 337.8 92.5C375.3 86.3 412.7 72.7 450.2 74C487.7 75.3 525.3 91.7 562.8 97C600.3 102.3 637.7 96.7 675.2 88.7C712.7 80.7 750.3 70.3 787.8 72.3C825.3 74.3 862.7 88.7 881.3 95.8L900 103L900 0L881.3 0C862.7 0 825.3 0 787.8 0C750.3 0 712.7 0 675.2 0C637.7 0 600.3 0 562.8 0C525.3 0 487.7 0 450.2 0C412.7 0 375.3 0 337.8 0C300.3 0 262.7 0 225.2 0C187.7 0 150.3 0 112.8 0C75.3 0 37.7 0 18.8 0L0 0Z" fill="#1f1f21"></path></svg>