<svg id="visual" viewBox="0 0 900 600" width="900" height="600" xmlns="http://www.w3.org/2000/svg" xmlns:xlink="http://www.w3.org/1999/xlink" version="1.1"><rect x="0" y="0" width="900" height="600" fill="#FC6D6D"></rect><path d="M0 227L21.5 224.3C43 221.7 86 216.3 128.8 249.5C171.7 282.7 214.3 354.3 257.2 354.2C300 354 343 282 385.8 262.2C428.7 242.3 471.3 274.7 514.2 306C557 337.3 600 367.7 642.8 374C685.7 380.3 728.3 362.7 771.2 332.8C814 303 857 261 878.5 240L900 219L900 601L878.5 601C857 601 814 601 771.2 601C728.3 601 685.7 601 642.8 601C600 601 557 601 514.2 601C471.3 601 428.7 601 385.8 601C343 601 300 601 257.2 601C214.3 601 171.7 601 128.8 601C86 601 43 601 21.5 601L0 601Z" fill="#ffae00" stroke-linecap="round" stroke-linejoin="miter"></path></svg>